<svg xmlns="http://www.w3.org/2000/svg" viewBox="0 0 33.78 9.17"><defs><style>.cls-1{fill:#fff;}</style></defs><g id="Layer_2" data-name="Layer 2"><g id="Layer_1-2" data-name="Layer 1"><path class="cls-1" d="M0,9V0H2.33A5.91,5.91,0,0,1,4.22.22,2,2,0,0,1,5.2,1a3,3,0,0,1,.4,1.08,18.45,18.45,0,0,1,.11,2.46A18.34,18.34,0,0,1,5.6,7a3,3,0,0,1-.4,1.08,1.88,1.88,0,0,1-1,.75A5.91,5.91,0,0,1,2.33,9ZM2.12,1.68v5.7h.31A1.34,1.34,0,0,0,3,7.29.87.87,0,0,0,3.36,7a1.41,1.41,0,0,0,.16-.64c0-.31,0-.92,0-1.84V4.11c0-.75,0-1.25,0-1.52a1.26,1.26,0,0,0-.15-.54A.75.75,0,0,0,3,1.76a1.75,1.75,0,0,0-.61-.09H2.12Z"/><path class="cls-1" d="M6.32,9,7.7,2.71H9.45L10.82,9H9.34L9.16,7.81H8L7.81,9ZM8.15,6.67H9L8.57,3.92Z"/><path class="cls-1" d="M11.39,9V2.71h1.54L14.16,6.6c-.05-.65-.09-1.22-.11-1.69S14,4,14,3.7v-1h1.31V9H13.79L12.56,5c0,.52.09,1,.12,1.52s0,1,0,1.43V9Z"/><path class="cls-1" d="M17.66,9V0h2.11V3.41h1.69V0h2.06V9H21.46V5.28H19.77V9Z"/><path class="cls-1" d="M24.77,2.71h1.49v4a3.39,3.39,0,0,0,.11,1.11.49.49,0,0,0,.81,0,3.35,3.35,0,0,0,.11-1.1v-4h1.46v4a6.26,6.26,0,0,1-.06,1,2,2,0,0,1-.19.59,1.44,1.44,0,0,1-.66.63,2.67,2.67,0,0,1-1.11.19,2.54,2.54,0,0,1-1-.18,1.45,1.45,0,0,1-.63-.6,2,2,0,0,1-.23-.74,11.11,11.11,0,0,1-.07-1.54Z"/><path class="cls-1" d="M29.78,9V2.71h1.45a7,7,0,0,1,1.19.07,1.67,1.67,0,0,1,.64.23,1.33,1.33,0,0,1,.53.63,2.56,2.56,0,0,1,.19,1,1.93,1.93,0,0,1-.51,1.45,2,2,0,0,1-1.49.5h-.52V9Zm1.48-3.59h.2a.85.85,0,0,0,.64-.21,1,1,0,0,0,.19-.67.64.64,0,0,0-.2-.54,1.09,1.09,0,0,0-.7-.17h-.13Z"/></g></g></svg>